# xmcd
#
# Track frame offsets:
#	150
#	20322
#	38121
#	56802
#	72153
#	92933
#	108063
#	126276
#	142261
#	156690
#	177146
#	190629
#	210373
#	229203
#
# Disc length: 3241 seconds
# Revision: 2
# Processed by: cddbd v1.5.2PL0 Copyright (c) Steve Scherf et al.
# Submitted via: dBpowerAMP V12.0
#
DISCID=c50ca70e
DTITLE=Black Top - Rough 'n Gritty
DYEAR=2008
DGENRE=Bluesrock
TTITLE0=In Front Of The Judge
TTITLE1=Gonna Take You Home
TTITLE2=It's Alright
TTITLE3=Down Down
TTITLE4=Sand And Stone
TTITLE5=She Wears Me Out
TTITLE6=Keep It Real
TTITLE7=Bad Boy
TTITLE8=Hey Hey (You Know What You Want)
TTITLE9=Shape I'm In
TTITLE10=She's Got Me Good
TTITLE11=Feel Free
TTITLE12=Sing
TTITLE13=Black Tank Top
EXTD=
EXTT0=
EXTT1=
EXTT2=
EXTT3=
EXTT4=
EXTT5=
EXTT6=
EXTT7=
EXTT8=
EXTT9=
EXTT10=
EXTT11=
EXTT12=
EXTT13=
PLAYORDER=
